<svg width="22" height="20" viewBox="0 0 22 20" fill="none" xmlns="http://www.w3.org/2000/svg">
<path d="M0 3.88354C0 2.10515 1.23105 0.663818 2.75 0.663818H19.25C20.7668 0.663818 22 2.10515 22 3.88354V16.7625C22 18.5383 20.7668 19.9822 19.25 19.9822H2.75C1.23105 19.9822 0 18.5383 0 16.7625V3.88354ZM2.0625 3.88354V4.99536L9.47461 12.119C10.3598 12.9742 11.6402 12.9742 12.5254 12.119L19.9375 4.99536V3.83827C19.9375 3.44083 19.6281 3.03334 19.25 3.03334H2.75C2.37016 3.03334 2.0625 3.44083 2.0625 3.83827V3.88354ZM2.0625 8.1195V16.7625C2.0625 17.2052 2.37016 17.5674 2.75 17.5674H19.25C19.6281 17.5674 19.9375 17.2052 19.9375 16.7625V8.1195L13.8359 13.9854C12.1859 15.5701 9.81406 15.5701 8.12539 13.9854L2.0625 8.1195Z" fill="#3B5D50"/>
</svg>
